<?xml version="1.0" encoding="utf-8"?>
<!-- Generator: Adobe Illustrator 25.2.3, SVG Export Plug-In . SVG Version: 6.00 Build 0)  -->
<svg version="1.1" id="レイヤー_1" xmlns="http://www.w3.org/2000/svg" xmlns:xlink="http://www.w3.org/1999/xlink" x="0px"
	 y="0px" viewBox="0 0 68 103.5" style="enable-background:new 0 0 68 103.5;" xml:space="preserve">
<style type="text/css">
	.st0{fill:#F8F8FA;}
</style>
<g>
	<path class="st0" d="M18.8,95c0,1-0.2,2.2-0.7,3.3c-0.5,1-1.8,3-3.7,4c-2.4,1.3-4.7,1.2-6.3,1.2c-1.4,0-3.5-0.5-4.4-0.7
		c-0.6-0.2-1.2-0.4-1.8-0.6c-0.6-0.3-1.2-0.6-1.8-0.9l1.6-4.9c1,1,2.7,2.3,4.5,3c0.9,0.4,2.6,0.8,4.2,0.7c1.7-0.2,3.7-1.5,3.7-4.4
		c0-0.9-0.3-1.7-0.9-2.3c-0.6-0.6-1.5-1.1-2.4-1.5c-0.9-0.4-1.9-0.8-3-1.2c-1.1-0.4-2.5-0.9-3.4-1.6c-0.9-0.7-1.7-1.4-2.3-2.5
		c-0.6-1-0.9-2.4-0.9-4c0-0.8,0.2-1.7,0.6-2.6c0.4-0.9,1-1.7,1.8-2.5c0.8-0.8,2-1.4,3.2-1.9c1.2-0.5,2.7-0.7,4.2-0.7
		c1.2,0,4.2,0.3,7.4,1.3l-1.7,4.9c-0.8-0.9-1.5-1.7-3-2.5c-0.8-0.4-1.8-0.6-3.7-0.5C7.1,78.5,6,80.5,6,81.7c0,0.7,0.2,1.3,0.5,1.8
		c0.4,0.5,0.8,0.9,1.4,1.2c0.6,0.4,1.3,0.7,2,1c0.8,0.3,1.5,0.6,2.3,0.9c0.8,0.3,1.6,0.7,2.3,1.1c0.8,0.4,1.6,1,2.2,1.7
		c0.6,0.6,1.1,1.4,1.4,2.3C18.6,92.6,18.8,93.7,18.8,95z"/>
	<path class="st0" d="M45.2,93.3c0,1.4-0.3,2.6-0.8,3.8c-0.5,1.2-1.2,2.3-2.2,3.2c-1,0.9-2.3,1.6-3.7,2.2c-1.5,0.5-3,0.8-5,0.8
		c-1.6,0-2.9-0.2-4.2-0.5c-1.3-0.3-2.4-0.9-3.3-1.6c-0.9-0.8-1.6-1.7-2.1-3c-0.5-1.2-0.7-2.7-0.7-4.5v-18h5.6l-0.2,18.4
		c0,1.4,0.1,2.4,0.3,3.2c0.2,0.8,0.6,1.4,1.1,1.8c0.5,0.4,1,0.7,1.7,0.8c0.7,0.1,1.3,0.2,2.2,0.2c1.1,0,1.8-0.1,2.6-0.4
		c0.8-0.2,1.5-0.5,2-0.9c0.6-0.4,0.9-1,1-1.9c0.1-0.8,0.2-1.9,0.2-3.1l-0.1-18.3h5.5V93.3z"/>
	<g>
		<path class="st0" d="M32.5,29.8l-26,15.1V38L26,26.8v-4.7L6.4,33.4V15.1L32.5,0v6.9L12.9,18.1v4.7l19.5-11.2V29.8z"/>
		<path class="st0" d="M62.3,44.9l-26-15v-6.8l19.5,11.2v-4.7L36.3,18.4V0l26,15v6.8L42.8,10.6v4.7l19.5,11.3V44.9z"/>
		<path class="st0" d="M34.4,63.4l26.2-15.1L34.4,33.2l-5.6,3.3l18.9,10.9l-14.8,8.5L14,45l-5.7,3.3L34.4,63.4z"/>
	</g>
	<path class="st0" d="M68,95c0,1-0.2,2.2-0.7,3.3c-0.5,1-1.8,3-3.7,4c-2.4,1.3-4.7,1.2-6.3,1.2c-1.4,0-3.5-0.5-4.4-0.7
		c-0.6-0.2-1.2-0.4-1.8-0.6c-0.6-0.3-1.2-0.6-1.8-0.9l1.6-4.9c1,1,2.7,2.3,4.5,3c0.9,0.4,2.6,0.8,4.2,0.7c1.7-0.2,3.7-1.5,3.7-4.4
		c0-0.9-0.3-1.7-0.9-2.3c-0.6-0.6-1.5-1.1-2.4-1.5c-0.9-0.4-1.9-0.8-3-1.2c-1.1-0.4-2.5-0.9-3.4-1.6c-0.9-0.7-1.7-1.4-2.3-2.5
		c-0.6-1-0.9-2.4-0.9-4c0-0.8,0.2-1.7,0.6-2.6c0.4-0.9,1-1.7,1.8-2.5c0.8-0.8,2-1.4,3.2-1.9c1.2-0.5,2.7-0.7,4.2-0.7
		c1.2,0,4.2,0.3,7.4,1.3l-1.7,4.9c-0.8-0.9-1.5-1.7-3-2.5c-0.8-0.4-1.8-0.6-3.7-0.5c-2.5,0.2-3.7,2.2-3.7,3.5c0,0.7,0.2,1.3,0.5,1.8
		c0.4,0.5,0.8,0.9,1.4,1.2c0.6,0.4,1.3,0.7,2,1c0.8,0.3,1.5,0.6,2.3,0.9c0.8,0.3,1.6,0.7,2.3,1.1c0.8,0.4,1.6,1,2.2,1.7
		c0.6,0.6,1.1,1.4,1.4,2.3C67.8,92.6,68,93.7,68,95z"/>
</g>
</svg>
